<mxfile host="app.diagrams.net" modified="2023-08-31T09:54:12.342Z" agent="Mozilla/5.0 (Macintosh; Intel Mac OS X 10_15_7) AppleWebKit/537.36 (KHTML, like Gecko) Chrome/116.0.0.0 Safari/537.36 Edg/116.0.1938.62" etag="Tg5AiTALq1OV9woFPjI6" version="21.7.1" type="github">
  <diagram name="Page-1" id="m1x5OIq2JYnSjJrBLE_s">
    <mxGraphModel dx="1242" dy="1907" grid="1" gridSize="10" guides="1" tooltips="1" connect="1" arrows="1" fold="1" page="1" pageScale="1" pageWidth="827" pageHeight="1169" math="0" shadow="0">
      <root>
        <mxCell id="0" />
        <mxCell id="1" parent="0" />
        <mxCell id="TCrD9jH9zZuHiqKtbaUk-3" value="" style="edgeStyle=orthogonalEdgeStyle;rounded=0;orthogonalLoop=1;jettySize=auto;html=1;" parent="1" source="TCrD9jH9zZuHiqKtbaUk-1" target="TCrD9jH9zZuHiqKtbaUk-2" edge="1">
          <mxGeometry relative="1" as="geometry" />
        </mxCell>
        <mxCell id="TCrD9jH9zZuHiqKtbaUk-1" value="&lt;pre style=&quot;box-sizing: inherit; font-family: monospace, monospace; font-size: 14px; border-radius: 0.125rem; margin-top: 0.5rem; margin-bottom: 0.5rem; max-height: none; border: none; overflow: auto; color: rgb(87, 87, 87); text-align: start;&quot;&gt;myvmware.workspaceair.com&lt;/pre&gt;" style="rounded=0;whiteSpace=wrap;html=1;" parent="1" vertex="1">
          <mxGeometry x="170" y="180" width="460" height="130" as="geometry" />
        </mxCell>
        <mxCell id="TCrD9jH9zZuHiqKtbaUk-2" value="&lt;pre style=&quot;box-sizing: inherit; font-family: monospace, monospace; font-size: 14px; border-radius: 0.125rem; margin-top: 0.5rem; margin-bottom: 0.5rem; max-height: none; border: none; overflow: auto;&quot;&gt;&lt;span style=&quot;color: rgb(87, 87, 87);&quot;&gt;{&lt;br&gt;  &quot;sub&quot;: &quot;d894b40d-bcf9-421a-a0a8-510cc7782942&quot;,&lt;br&gt;  &quot;scp&quot;: &quot;user profile email&quot;,&lt;br&gt;  &quot;eml&quot;: &quot;yichangw1@vmware.com&quot;,&lt;br&gt;  &quot;ctx&quot;: &quot;[{\&quot;mtd\&quot;:\&quot;urn:vmware:names:ac:classes:CertificateService\&quot;,\&quot;iat\&quot;:1693425091,\&quot;typ\&quot;:\&quot;00000000-0000-0000-0000-000000000001\&quot;,\&quot;idm\&quot;:true},{\&quot;mtd\&quot;:\&quot;urn:vmware:names:ac:classes:loginriskscore\&quot;,\&quot;iat\&quot;:1693425091,\&quot;typ\&quot;:\&quot;00000000-0000-0000-0000-000000000025\&quot;,\&quot;idm\&quot;:true}]&quot;,&lt;br&gt;  &quot;iss&quot;: &quot;&lt;/span&gt;&lt;font color=&quot;#ff0000&quot;&gt;https://myvmware.workspaceair.com/SAAS/auth&lt;/font&gt;&lt;font color=&quot;#575757&quot;&gt;&quot;,&lt;br&gt;  &quot;pid&quot;: &quot;c7eaa3ea-759c-41c5-aa5d-3c349720349e&quot;,&lt;br&gt;  &quot;prn&quot;: &quot;yichangw1@MYVMWARE&quot;,&lt;br&gt;  &quot;aud&quot;: &quot;&lt;/font&gt;&lt;font color=&quot;#ff0000&quot;&gt;https://myvmware.workspaceair.com/SAAS/auth/oauthtoken&lt;/font&gt;&lt;font color=&quot;#575757&quot;&gt;&quot;,&lt;br&gt;  &quot;wid&quot;: &quot;&quot;,&lt;br&gt;  &quot;idp&quot;: &quot;&quot;,&lt;br&gt;  &quot;user_id&quot;: &quot;16009325&quot;,&lt;br&gt;  &quot;auth_time&quot;: 1693425091,&lt;br&gt;  &quot;domain&quot;: &quot;vmware.com&quot;,&lt;br&gt;  &quot;exp&quot;: 1693482691,&lt;br&gt;  &quot;prn_type&quot;: &quot;USER&quot;,&lt;br&gt;  &quot;iat&quot;: 1693425092,&lt;br&gt;  &quot;did&quot;: &quot;&quot;,&lt;br&gt;  &quot;jti&quot;: &quot;c7eaa3ea-759c-41c5-aa5d-3c349720349e&quot;,&lt;br&gt;  &quot;cid&quot;: &quot;&quot;&lt;br&gt;}&lt;/font&gt;&lt;/pre&gt;" style="html=1;rounded=0;whiteSpace=wrap;align=left;" parent="1" vertex="1">
          <mxGeometry x="880" y="60" width="610" height="370" as="geometry" />
        </mxCell>
        <mxCell id="TCrD9jH9zZuHiqKtbaUk-7" value="" style="edgeStyle=orthogonalEdgeStyle;rounded=0;orthogonalLoop=1;jettySize=auto;html=1;" parent="1" source="TCrD9jH9zZuHiqKtbaUk-4" edge="1">
          <mxGeometry relative="1" as="geometry">
            <mxPoint x="880" y="765" as="targetPoint" />
          </mxGeometry>
        </mxCell>
        <mxCell id="TCrD9jH9zZuHiqKtbaUk-9" value="" style="edgeStyle=orthogonalEdgeStyle;rounded=0;orthogonalLoop=1;jettySize=auto;html=1;" parent="1" source="TCrD9jH9zZuHiqKtbaUk-4" target="TCrD9jH9zZuHiqKtbaUk-8" edge="1">
          <mxGeometry relative="1" as="geometry" />
        </mxCell>
        <mxCell id="TCrD9jH9zZuHiqKtbaUk-4" value="&lt;pre style=&quot;box-sizing: inherit; font-family: monospace, monospace; font-size: 14px; border-radius: 0.125rem; margin-top: 0.5rem; margin-bottom: 0.5rem; max-height: none; border: none; overflow: auto; color: rgb(87, 87, 87); text-align: start;&quot;&gt;&lt;pre style=&quot;box-sizing: inherit; font-family: monospace, monospace; border-radius: 0.125rem; margin-top: 0.5rem; margin-bottom: 0.5rem; max-height: none; border: none; overflow: auto;&quot;&gt;csp-oss.vmwareidentity.com&lt;/pre&gt;&lt;/pre&gt;" style="rounded=0;whiteSpace=wrap;html=1;" parent="1" vertex="1">
          <mxGeometry x="170" y="700" width="460" height="130" as="geometry" />
        </mxCell>
        <mxCell id="TCrD9jH9zZuHiqKtbaUk-6" value="&lt;pre style=&quot;box-sizing: inherit; font-family: monospace, monospace; font-size: 14px; border-radius: 0.125rem; margin-top: 0.5rem; margin-bottom: 0.5rem; max-height: none; border: none; overflow: auto;&quot;&gt;&lt;pre style=&quot;box-sizing: inherit; font-family: monospace, monospace; border-radius: 0.125rem; margin-top: 0.5rem; margin-bottom: 0.5rem; max-height: none; border: none; overflow: auto;&quot;&gt;&lt;font color=&quot;#575757&quot;&gt;{&lt;br&gt;  &quot;exp&quot;: 1693446831,&lt;br&gt;  &quot;iat&quot;: 1693425231,&lt;br&gt;  &quot;sub&quot;: &quot;795d9758-30c7-4918-9f31-e898aa6af40e&quot;,&lt;br&gt;  &quot;auth_time&quot;: 1693425230,&lt;br&gt;  &quot;scp&quot;: &quot;profile admin user email&quot;,&lt;br&gt;  &quot;eml&quot;: &quot;yichangw1@vmware.com&quot;,&lt;br&gt;  &quot;ctx&quot;: &quot;[{\&quot;mtd\&quot;:\&quot;urn:oasis:names:tc:SAML:2.0:ac:classes:PasswordProtectedTransport\&quot;,\&quot;iat\&quot;:1693425230,\&quot;typ\&quot;:\&quot;d3b2976c-a71a-42ac-8a4a-6113b0d1be65\&quot;,\&quot;idm\&quot;:false}]&quot;,&lt;br&gt;  &quot;iss&quot;: &quot;&lt;/font&gt;&lt;font color=&quot;#ff0000&quot;&gt;https://csp-oss.vmwareidentity.com/SAAS/auth&lt;/font&gt;&lt;font color=&quot;#575757&quot;&gt;&quot;,&lt;br&gt;  &quot;pid&quot;: &quot;d8672753-7e7c-4d92-8ea9-641b8cf4cea4&quot;,&lt;br&gt;  &quot;rules&quot;: {&lt;br&gt;    &quot;expiry&quot;: 1693427030,&lt;br&gt;    &quot;rules&quot;: [&lt;br&gt;      {&lt;br&gt;        &quot;disabled&quot;: false,&lt;br&gt;        &quot;resources&quot;: [&lt;br&gt;          &quot;*&quot;&lt;br&gt;        ],&lt;br&gt;        &quot;actions&quot;: [&lt;br&gt;          &quot;acs:readRuleSets&quot;,&lt;br&gt;          &quot;dm:read&quot;,&lt;br&gt;          &quot;ug:read&quot;,&lt;br&gt;          &quot;ent:read&quot;,&lt;br&gt;          &quot;ctg:read&quot;,&lt;br&gt;          &quot;tnts:read&quot;,&lt;br&gt;          &quot;rpt:*&quot;&lt;br&gt;        ]&lt;br&gt;      },&lt;br&gt;      {&lt;br&gt;        &quot;disabled&quot;: false,&lt;br&gt;        &quot;resources&quot;: [&lt;br&gt;          &quot;*&quot;&lt;br&gt;        ],&lt;br&gt;        &quot;actions&quot;: [&lt;br&gt;          &quot;*&quot;&lt;br&gt;        ]&lt;br&gt;      }&lt;br&gt;    ],&lt;br&gt;    &quot;link&quot;: &quot;https://csp-oss.vmwareidentity.com/acs/rules/me&quot;&lt;br&gt;  },&lt;br&gt;  &quot;prn&quot;: &quot;yichangw1@CSP-OSS&quot;,&lt;br&gt;  &quot;aud&quot;: &quot;&lt;/font&gt;&lt;font color=&quot;#ff0000&quot;&gt;https://csp-oss.vmwareidentity.com/SAAS/auth/oauthtoken&lt;/font&gt;&lt;font color=&quot;#575757&quot;&gt;&quot;,&lt;br&gt;  &quot;wid&quot;: &quot;&quot;,&lt;br&gt;  &quot;idp&quot;: &quot;&quot;,&lt;br&gt;  &quot;user_id&quot;: &quot;407159479&quot;,&lt;br&gt;  &quot;azp&quot;: &quot;greenbox&quot;,&lt;br&gt;  &quot;domain&quot;: &quot;vmware.com&quot;,&lt;br&gt;  &quot;prn_type&quot;: &quot;USER&quot;,&lt;br&gt;  &quot;jti&quot;: &quot;222fdb7f-6f9e-4dce-b23a-5b8183621225&quot;,&lt;br&gt;  &quot;cid&quot;: &quot;greenbox&quot;&lt;br&gt;}&lt;/font&gt;&lt;/pre&gt;&lt;/pre&gt;" style="rounded=0;whiteSpace=wrap;html=1;align=left;" parent="1" vertex="1">
          <mxGeometry x="880" y="500" width="610" height="880" as="geometry" />
        </mxCell>
        <mxCell id="TCrD9jH9zZuHiqKtbaUk-11" value="" style="edgeStyle=orthogonalEdgeStyle;rounded=0;orthogonalLoop=1;jettySize=auto;html=1;" parent="1" source="TCrD9jH9zZuHiqKtbaUk-8" edge="1">
          <mxGeometry relative="1" as="geometry">
            <mxPoint x="880" y="1650" as="targetPoint" />
          </mxGeometry>
        </mxCell>
        <mxCell id="TCrD9jH9zZuHiqKtbaUk-8" value="&lt;pre style=&quot;box-sizing: inherit; font-family: monospace, monospace; font-size: 14px; border-radius: 0.125rem; margin-top: 0.5rem; margin-bottom: 0.5rem; max-height: none; border: none; overflow: auto; color: rgb(87, 87, 87); text-align: start;&quot;&gt;&lt;pre style=&quot;box-sizing: inherit; font-family: monospace, monospace; border-radius: 0.125rem; margin-top: 0.5rem; margin-bottom: 0.5rem; max-height: none; border: none; overflow: auto;&quot;&gt;&quot;iss&quot;: &quot;https://api.console.cerberus.vmware.com/auth&quot;&lt;/pre&gt;&lt;/pre&gt;" style="rounded=0;whiteSpace=wrap;html=1;" parent="1" vertex="1">
          <mxGeometry x="170" y="1585" width="460" height="130" as="geometry" />
        </mxCell>
        <mxCell id="TCrD9jH9zZuHiqKtbaUk-10" value="&lt;pre style=&quot;box-sizing: inherit; font-family: monospace, monospace; font-size: 14px; border-radius: 0.125rem; margin-top: 0.5rem; margin-bottom: 0.5rem; max-height: none; border: none; overflow: auto;&quot;&gt;&lt;pre style=&quot;box-sizing: inherit; font-family: monospace, monospace; border-radius: 0.125rem; margin-top: 0.5rem; margin-bottom: 0.5rem; max-height: none; border: none; overflow: auto;&quot;&gt;&lt;font color=&quot;#575757&quot;&gt;{&lt;br&gt;  &quot;iss&quot;: &quot;&lt;/font&gt;&lt;font color=&quot;#ff0000&quot;&gt;https://api.console.cerberus.vmware.com/auth&lt;/font&gt;&lt;font color=&quot;#575757&quot;&gt;&quot;,&lt;br&gt;  &quot;tenant&quot;: &quot;4UTkp1xjWVEDIuFfmc2Kd52W3m3bZXDn&quot;,&lt;br&gt;  &quot;azp&quot;: &quot;Tp41IhocC18bSjQ1-ZDm5dMp5OwZJD5l&quot;,&lt;br&gt;  &quot;aud&quot;: [&lt;br&gt;    &quot;gRjQO1exVDtYINUhfhqPzYy7GaPTDM8J&quot;,&lt;br&gt;    &quot;Tp41IhocC18bSjQ1-ZDm5dMp5OwZJD5l&quot;&lt;br&gt;  ],&lt;br&gt;  &quot;sub&quot;: &quot;AoFFEhfKrxw6RPlke5ceUuxpw52dzdk5:yichangw1@vmware.com&quot;,&lt;br&gt;  &quot;groups&quot;: [&lt;br&gt;    &quot;local::8LdxRfzjrfDwGJmSs0zi3iBd2V4unpsb:cerberus-team&quot;,&lt;br&gt;    &quot;local::q5wAm0lIjkrVrKJGRePG5PNNz5Y-CbNS:restricted-admin&quot;,&lt;br&gt;    &quot;AoFFEhfKrxw6RPlke5ceUuxpw52dzdk5:all users&quot;,&lt;br&gt;    &quot;AoFFEhfKrxw6RPlke5ceUuxpw52dzdk5:wavefront&quot;,&lt;br&gt;    &quot;AoFFEhfKrxw6RPlke5ceUuxpw52dzdk5:cso cm&quot;,&lt;br&gt;    &quot;AoFFEhfKrxw6RPlke5ceUuxpw52dzdk5:bigpanda users&quot;,&lt;br&gt;    &quot;AoFFEhfKrxw6RPlke5ceUuxpw52dzdk5:uptime - production&quot;,&lt;br&gt;    &quot;AoFFEhfKrxw6RPlke5ceUuxpw52dzdk5:cerberus admins&quot;,&lt;br&gt;    &quot;AoFFEhfKrxw6RPlke5ceUuxpw52dzdk5:cerberus eap&quot;,&lt;br&gt;    &quot;AoFFEhfKrxw6RPlke5ceUuxpw52dzdk5:bigpanda multitenant&quot;,&lt;br&gt;    &quot;AoFFEhfKrxw6RPlke5ceUuxpw52dzdk5:artifactory-saas&quot;,&lt;br&gt;    &quot;AoFFEhfKrxw6RPlke5ceUuxpw52dzdk5:artifactory-saas-cso-cm-docker-user&quot;,&lt;br&gt;    &quot;AoFFEhfKrxw6RPlke5ceUuxpw52dzdk5:cerberus users&quot;,&lt;br&gt;    &quot;AoFFEhfKrxw6RPlke5ceUuxpw52dzdk5:logz-cso-cm-staging-users&quot;,&lt;br&gt;    &quot;AoFFEhfKrxw6RPlke5ceUuxpw52dzdk5:logz-cso-cm-production-users&quot;,&lt;br&gt;    &quot;AoFFEhfKrxw6RPlke5ceUuxpw52dzdk5:logz-cso-cm-development-users&quot;,&lt;br&gt;    &quot;AoFFEhfKrxw6RPlke5ceUuxpw52dzdk5:aws tanzu tas ppe prd poweruser&quot;&lt;br&gt;  ],&lt;br&gt;  &quot;roles&quot;: [&lt;br&gt;    &quot;CerberusAdmin&quot;,&lt;br&gt;    &quot;TenantAdmin&quot;&lt;br&gt;  ],&lt;br&gt;  &quot;exp&quot;: 1692706024,&lt;br&gt;  &quot;iat&quot;: 1692702424&lt;br&gt;}&lt;/font&gt;&lt;/pre&gt;&lt;/pre&gt;" style="rounded=0;whiteSpace=wrap;html=1;align=left;" parent="1" vertex="1">
          <mxGeometry x="880" y="1430" width="610" height="690" as="geometry" />
        </mxCell>
        <mxCell id="Zfs7B2MpL_2k7RsKBlbr-4" value="" style="edgeStyle=orthogonalEdgeStyle;rounded=0;orthogonalLoop=1;jettySize=auto;html=1;" edge="1" parent="1" source="Zfs7B2MpL_2k7RsKBlbr-1" target="Zfs7B2MpL_2k7RsKBlbr-3">
          <mxGeometry relative="1" as="geometry" />
        </mxCell>
        <mxCell id="Zfs7B2MpL_2k7RsKBlbr-1" value="&lt;pre style=&quot;box-sizing: inherit; font-family: monospace, monospace; font-size: 14px; border-radius: 0.125rem; margin-top: 0.5rem; margin-bottom: 0.5rem; max-height: none; border: none; overflow: auto; color: rgb(87, 87, 87); text-align: start;&quot;&gt;source.vmware.com&lt;/pre&gt;" style="rounded=0;whiteSpace=wrap;html=1;" vertex="1" parent="1">
          <mxGeometry x="170" y="-235" width="460" height="130" as="geometry" />
        </mxCell>
        <mxCell id="Zfs7B2MpL_2k7RsKBlbr-3" value="&lt;pre style=&quot;box-sizing: inherit; font-family: monospace, monospace; font-size: 14px; border-radius: 0.125rem; margin-top: 0.5rem; margin-bottom: 0.5rem; max-height: none; border: none; overflow: auto;&quot;&gt;&lt;pre style=&quot;box-sizing: inherit; font-family: monospace, monospace; border-radius: 0.125rem; margin-top: 0.5rem; margin-bottom: 0.5rem; max-height: none; border: none; overflow: auto;&quot;&gt;&lt;font color=&quot;#575757&quot;&gt;{&lt;br&gt;  &quot;exp&quot;: 1693485681,&lt;br&gt;  &quot;iat&quot;: 1693474881,&lt;br&gt;  &quot;sub&quot;: &quot;d894b40d-bcf9-421a-a0a8-510cc7782942&quot;,&lt;br&gt;  &quot;auth_time&quot;: 1688970706,&lt;br&gt;  &quot;scp&quot;: &quot;openid profile user email&quot;,&lt;br&gt;  &quot;eml&quot;: &quot;yichangw1@vmware.com&quot;,&lt;br&gt;  &quot;ctx&quot;: &quot;[{\&quot;mtd\&quot;:\&quot;urn:vmware:names:ac:classes:CertificateService\&quot;,\&quot;iat\&quot;:1688970655,\&quot;typ\&quot;:\&quot;00000000-0000-0000-0000-000000000001\&quot;,\&quot;idm\&quot;:true},{\&quot;mtd\&quot;:\&quot;urn:rsa:names:tc:SAML:2.0:ac:classes:spec:stepup:low_assurance_policy\&quot;,\&quot;iat\&quot;:1688970706,\&quot;typ\&quot;:\&quot;3820e738-a70e-485f-a0e6-f937f444e8ad\&quot;,\&quot;idm\&quot;:false}]&quot;,&lt;br&gt;  &quot;iss&quot;: &quot;&lt;/font&gt;&lt;font color=&quot;#ff0000&quot;&gt;https://myvmware.workspaceair.com/SAAS/auth&quot;&lt;/font&gt;&lt;font color=&quot;#575757&quot;&gt;,&lt;br&gt;  &quot;pid&quot;: &quot;e859d6d3-bf20-4210-a15d-54f4269535d9&quot;,&lt;br&gt;  &quot;prn&quot;: &quot;yichangw1@MYVMWARE&quot;,&lt;br&gt;  &quot;aud&quot;: &quot;&lt;/font&gt;&lt;font color=&quot;#ff0000&quot;&gt;https://myvmware.workspaceair.com/SAAS/auth/oauthtoken&lt;/font&gt;&lt;font color=&quot;#575757&quot;&gt;&quot;,&lt;br&gt;  &quot;wid&quot;: &quot;&quot;,&lt;br&gt;  &quot;idp&quot;: &quot;&quot;,&lt;br&gt;  &quot;user_id&quot;: &quot;16009325&quot;,&lt;br&gt;  &quot;azp&quot;: &quot;sourcex-prod-oidc&quot;,&lt;br&gt;  &quot;domain&quot;: &quot;vmware.com&quot;,&lt;br&gt;  &quot;prn_type&quot;: &quot;USER&quot;,&lt;br&gt;  &quot;jti&quot;: &quot;ec2047aa-eb65-43a7-9f1a-39b4bce194c2&quot;,&lt;br&gt;  &quot;cid&quot;: &quot;sourcex-prod-oidc&quot;&lt;br&gt;}&lt;/font&gt;&lt;/pre&gt;&lt;/pre&gt;" style="rounded=0;whiteSpace=wrap;html=1;align=left;" vertex="1" parent="1">
          <mxGeometry x="880" y="-350" width="610" height="360" as="geometry" />
        </mxCell>
      </root>
    </mxGraphModel>
  </diagram>
</mxfile>
